<svg width="28" height="28" viewBox="0 0 28 28" fill="none" xmlns="http://www.w3.org/2000/svg">
<path d="M19.8335 2.3335H8.16683C4.94517 2.3335 2.3335 4.94517 2.3335 8.16683V19.8335C2.3335 23.0552 4.94517 25.6668 8.16683 25.6668H19.8335C23.0552 25.6668 25.6668 23.0552 25.6668 19.8335V8.16683C25.6668 4.94517 23.0552 2.3335 19.8335 2.3335Z" stroke="#F8F7F7" stroke-width="1.5" stroke-linecap="round" stroke-linejoin="round"/>
<path d="M18.6667 13.2649C18.8106 14.2358 18.6448 15.2274 18.1927 16.0987C17.7406 16.97 17.0253 17.6765 16.1485 18.1178C15.2718 18.5591 14.2782 18.7127 13.3091 18.5568C12.34 18.4008 11.4447 17.9433 10.7506 17.2492C10.0566 16.5551 9.599 15.6599 9.44306 14.6908C9.28712 13.7217 9.44073 12.7281 9.88203 11.8513C10.3233 10.9745 11.0299 10.2592 11.9011 9.80715C12.7724 9.35506 13.764 9.18922 14.735 9.3332C15.7254 9.48006 16.6423 9.94157 17.3503 10.6496C18.0583 11.3575 18.5198 12.2745 18.6667 13.2649Z" stroke="#F8F7F7" stroke-width="1.5" stroke-linecap="round" stroke-linejoin="round"/>
<path d="M20.4165 7.5835H20.4282" stroke="#F8F7F7" stroke-width="1.5" stroke-linecap="round" stroke-linejoin="round"/>
</svg>
