<svg width="28" height="28" viewBox="0 0 28 28" fill="none" xmlns="http://www.w3.org/2000/svg">
<g clip-path="url(#clip0_44_6964)">
<path d="M13.95 0C6.60472 0 0.580415 5.66405 0 12.8692L7.50536 15.9714C8.14582 15.5311 8.90636 15.2909 9.72695 15.2909C9.80701 15.2909 9.86705 15.2909 9.94711 15.2909L13.2895 10.4475C13.2895 10.4274 13.2895 10.4074 13.2895 10.3874C13.2895 7.48535 15.6512 5.10365 18.5733 5.10365C21.4753 5.10365 23.857 7.46533 23.857 10.3874C23.857 13.3095 21.4954 15.6712 18.5733 15.6712C18.5332 15.6712 18.4932 15.6712 18.4532 15.6712L13.6898 19.0736C13.6898 19.1337 13.6898 19.1937 13.6898 19.2538C13.6898 21.4353 11.9085 23.2166 9.72695 23.2166C7.80558 23.2166 6.20443 21.8556 5.84418 20.0343L0.480343 17.8127C2.14153 23.6969 7.54539 28 13.95 28C21.6755 28 27.94 21.7355 27.94 14.01C27.94 6.26447 21.6755 0 13.95 0Z" fill="currentColor"/>
<path d="M8.76615 21.2351L7.04492 20.5346C7.34514 21.175 7.88552 21.6954 8.58602 21.9956C10.1071 22.616 11.8484 21.9155 12.4688 20.3945C12.769 19.6539 12.769 18.8534 12.4688 18.1128C12.1686 17.3723 11.5882 16.8119 10.8677 16.4917C10.1471 16.1914 9.36658 16.1914 8.68609 16.4516L10.4674 17.1922C11.5882 17.6525 12.1085 18.9334 11.6482 20.0542C11.1679 21.175 9.88695 21.7154 8.76615 21.2351Z" fill="currentColor"/>
<path d="M22.0758 10.3874C22.0758 8.446 20.4947 6.86487 18.5533 6.86487C16.6119 6.86487 15.0308 8.446 15.0308 10.3874C15.0308 12.3288 16.6119 13.9099 18.5533 13.9099C20.4947 13.9099 22.0758 12.3288 22.0758 10.3874ZM15.9314 10.3874C15.9314 8.92634 17.1122 7.7455 18.5733 7.7455C20.0343 7.7455 21.2152 8.92634 21.2152 10.3874C21.2152 11.8484 20.0343 13.0293 18.5733 13.0293C17.1122 13.0293 15.9314 11.8484 15.9314 10.3874Z" fill="currentColor"/>
</g>
<defs>
<clipPath id="clip0_44_6964">
<rect width="28" height="28" fill="white"/>
</clipPath>
</defs>
</svg>
