<svg width="28" height="28" viewBox="0 0 28 28" fill="none" xmlns="http://www.w3.org/2000/svg">
<g clip-path="url(#clip0_176_970)">
<path d="M15.75 0H19.215C19.467 1.25125 20.16 2.82975 21.3763 4.396C22.5663 5.93075 24.1448 7 26.25 7V10.5C23.1823 10.5 20.8775 9.0755 19.25 7.29925V19.25C19.25 20.9806 18.7368 22.6723 17.7754 24.1112C16.8139 25.5502 15.4473 26.6717 13.8485 27.3339C12.2496 27.9962 10.4903 28.1695 8.79296 27.8319C7.09563 27.4943 5.53653 26.6609 4.31282 25.4372C3.08911 24.2135 2.25575 22.6544 1.91813 20.957C1.58051 19.2597 1.75379 17.5004 2.41606 15.9015C3.07832 14.3027 4.19983 12.9361 5.63876 11.9746C7.07769 11.0132 8.76942 10.5 10.5 10.5V14C9.46165 14 8.44662 14.3079 7.58326 14.8848C6.7199 15.4617 6.047 16.2816 5.64964 17.2409C5.25228 18.2002 5.14831 19.2558 5.35088 20.2742C5.55345 21.2926 6.05347 22.2281 6.78769 22.9623C7.52192 23.6965 8.45738 24.1966 9.47578 24.3991C10.4942 24.6017 11.5498 24.4977 12.5091 24.1004C13.4684 23.703 14.2883 23.0301 14.8652 22.1667C15.4421 21.3034 15.75 20.2884 15.75 19.25V0Z" fill="#F8F7F7"/>
</g>
<defs>
<clipPath id="clip0_176_970">
<rect width="28" height="28" fill="white"/>
</clipPath>
</defs>
</svg>
