<svg width="28" height="28" viewBox="0 0 28 28" fill="none" xmlns="http://www.w3.org/2000/svg">
<mask id="mask0_176_975" style="mask-type:luminance" maskUnits="userSpaceOnUse" x="2" y="2" width="24" height="24">
<path d="M26 2H2V26H26V2Z" fill="white"/>
</mask>
<g mask="url(#mask0_176_975)">
<path d="M15.5 2H18.47C18.686 3.0725 19.28 4.4255 20.3225 5.768C21.3425 7.0835 22.6955 8 24.5 8V11C21.8705 11 19.895 9.779 18.5 8.2565V18.5C18.5 19.9834 18.0601 21.4334 17.236 22.6668C16.4119 23.9001 15.2406 24.8614 13.8701 25.4291C12.4997 25.9968 10.9917 26.1453 9.53683 25.8559C8.08197 25.5665 6.7456 24.8522 5.6967 23.8033C4.64781 22.7544 3.9335 21.418 3.64411 19.9632C3.35472 18.5083 3.50325 17.0003 4.07091 15.6299C4.63856 14.2594 5.59986 13.0881 6.83323 12.264C8.0666 11.4399 9.51664 11 11 11V14C10.11 14 9.23996 14.2639 8.49994 14.7584C7.75992 15.2529 7.18314 15.9557 6.84255 16.7779C6.50195 17.6002 6.41284 18.505 6.58647 19.3779C6.7601 20.2508 7.18869 21.0526 7.81802 21.682C8.44736 22.3113 9.24918 22.7399 10.1221 22.9135C10.995 23.0872 11.8998 22.9981 12.7221 22.6575C13.5443 22.3169 14.2472 21.7401 14.7416 21.0001C15.2361 20.26 15.5 19.39 15.5 18.5V2Z" fill="#F8F7F7"/>
</g>
</svg>
