<svg width="625" height="189" viewBox="0 0 625 189" fill="none" xmlns="http://www.w3.org/2000/svg">
<path d="M93.9049 0C44.46 0 3.90709 38.1278 0 86.6296L50.5227 107.512C54.834 104.548 59.9537 102.932 65.4775 102.932C66.0164 102.932 66.4206 102.932 66.9595 102.932L89.459 70.3276C89.459 70.1929 89.459 70.0582 89.459 69.9235C89.459 50.388 105.357 34.3555 125.027 34.3555C144.562 34.3555 160.595 50.2533 160.595 69.9235C160.595 89.4589 144.697 105.491 125.027 105.491C124.758 105.491 124.488 105.491 124.219 105.491L92.1535 128.395C92.1535 128.799 92.1535 129.203 92.1535 129.608C92.1535 144.293 80.1628 156.284 65.4775 156.284C52.5437 156.284 41.7655 147.122 39.3404 134.862L3.23346 119.907C14.4158 159.517 50.7922 188.484 93.9049 188.484C145.91 188.484 188.079 146.314 188.079 94.3091C188.079 42.1696 145.91 0 93.9049 0Z" fill="#FF004E"/>
<path d="M59.0106 142.945L47.4241 138.23C49.445 142.541 53.0826 146.044 57.7981 148.065C68.0373 152.242 79.7586 147.526 83.9352 137.287C85.9561 132.302 85.9561 126.913 83.9352 121.928C81.9143 116.943 78.0072 113.171 73.157 111.015C68.3068 108.994 63.0524 108.994 58.4717 110.746L70.4624 115.731C78.0072 118.829 81.5101 127.452 78.4114 134.996C75.1779 142.541 66.5553 146.179 59.0106 142.945Z" fill="#FF004E"/>
<path d="M148.604 69.9236C148.604 56.855 137.961 46.2115 124.892 46.2115C111.824 46.2115 101.18 56.855 101.18 69.9236C101.18 82.9921 111.824 93.6356 124.892 93.6356C137.961 93.6356 148.604 82.9921 148.604 69.9236ZM107.243 69.9236C107.243 60.0885 115.192 52.1395 125.027 52.1395C134.862 52.1395 142.811 60.0885 142.811 69.9236C142.811 79.7587 134.862 87.7076 125.027 87.7076C115.192 87.7076 107.243 79.7587 107.243 69.9236Z" fill="#FF004E"/>
<path d="M288.72 64.5346L282.388 75.5822C277.538 72.214 270.936 70.1931 265.143 70.1931C258.542 70.1931 254.5 72.8877 254.5 77.7378C254.5 83.6658 261.775 85.0131 272.418 88.9202C284.005 92.962 290.607 97.8122 290.607 108.321C290.607 122.737 279.29 130.955 262.853 130.955C254.904 130.955 245.204 128.934 237.928 124.353L242.509 112.093C248.572 115.327 255.712 117.078 262.044 117.078C270.667 117.078 274.844 113.845 274.844 109.129C274.844 103.74 268.646 102.123 258.542 98.7553C247.09 94.8482 239.006 89.8633 239.006 78.142C239.006 64.9388 249.515 57.394 264.739 57.394C275.382 57.5288 284.005 60.8969 288.72 64.5346Z" fill="#FF004E"/>
<path d="M338.031 71.5403V129.742H323.211V71.5403H301.655V58.7412H359.587V71.5403H338.031Z" fill="#FF004E"/>
<path d="M390.844 71.5403V87.4381H419.271V100.237H390.844V116.943H423.852V129.742H376.024V58.7412H423.852V71.5403H390.844Z" fill="#FF004E"/>
<path d="M456.995 116L452.28 129.742H436.651L463.327 58.7412H478.282L505.632 129.742H489.464L484.614 116H456.995ZM470.737 75.7168L461.037 104.144H480.707L470.737 75.7168Z" fill="#FF004E"/>
<path d="M582.022 86.2256L562.621 127.722H554.133L535.137 86.6297V129.742H520.856V58.7412H535.002L558.849 110.072L581.887 58.7412H596.303V129.742H582.022V86.2256Z" fill="#FF004E"/>
<path d="M625 67.7676C625 73.8304 620.419 77.6028 615.165 77.6028C609.911 77.6028 605.33 73.8304 605.33 67.7676C605.33 61.7049 609.911 57.9326 615.165 57.9326C620.419 57.7978 625 61.5702 625 67.7676ZM606.947 67.7676C606.947 72.8873 610.584 76.1208 615.165 76.1208C619.611 76.1208 623.383 72.8873 623.383 67.7676C623.383 62.648 619.746 59.5493 615.165 59.5493C610.719 59.4145 606.947 62.648 606.947 67.7676ZM615.3 62.648C617.86 62.648 618.668 63.9953 618.668 65.4773C618.668 66.8246 617.86 67.7677 616.916 68.1719L619.207 72.4831H617.321L615.434 68.7108H613.414V72.4831H611.797V62.7828H615.3V62.648ZM613.414 67.2287H615.165C616.243 67.2287 616.916 66.5551 616.916 65.612C616.916 64.6689 616.378 64.13 615.165 64.13H613.414V67.2287Z" fill="#FF004E"/>
</svg>
