<svg width="1678" height="540" viewBox="0 0 1678 540" fill="none" xmlns="http://www.w3.org/2000/svg">
<g filter="url(#filter0_dd_118_12219)">
<path d="M269.107 0C137.941 0 30.3645 101.144 20 229.807L154.024 285.204C165.461 277.341 179.042 273.052 193.696 273.052C195.125 273.052 196.197 273.052 197.627 273.052L257.312 186.562C257.312 186.204 257.312 185.847 257.312 185.49C257.312 133.667 299.485 91.1365 351.665 91.1365C403.488 91.1365 446.019 133.309 446.019 185.49C446.019 237.312 403.846 279.843 351.665 279.843C350.951 279.843 350.236 279.843 349.521 279.843L264.46 340.6C264.46 341.673 264.46 342.745 264.46 343.817C264.46 382.773 232.652 414.582 193.696 414.582C159.385 414.582 130.793 390.279 124.36 357.756L28.5776 318.084C58.2416 423.159 154.739 500 269.107 500C407.062 500 518.928 388.134 518.928 250.179C518.928 111.866 407.062 0 269.107 0Z" fill="#FF004E"/>
<path d="M176.537 379.197L145.801 366.688C151.162 378.125 160.811 387.417 173.32 392.778C200.483 403.858 231.576 391.349 242.656 364.186C248.017 350.963 248.017 336.667 242.656 323.443C237.295 310.219 226.93 300.212 214.064 294.494C201.197 289.133 187.259 289.133 175.107 293.779L206.916 307.003C226.93 315.223 236.223 338.096 228.002 358.111C219.425 378.125 196.551 387.775 176.537 379.197Z" fill="#FF004E"/>
<path d="M414.208 185.492C414.208 150.824 385.974 122.59 351.306 122.59C316.639 122.59 288.404 150.824 288.404 185.492C288.404 220.16 316.639 248.394 351.306 248.394C385.974 248.394 414.208 220.16 414.208 185.492ZM304.487 185.492C304.487 159.402 325.574 138.315 351.664 138.315C377.754 138.315 398.84 159.402 398.84 185.492C398.84 211.582 377.754 232.669 351.664 232.669C325.574 232.669 304.487 211.582 304.487 185.492Z" fill="#FF004E"/>
</g>
<path d="M785.903 171.193L769.105 200.499C756.239 191.564 738.726 186.203 723.358 186.203C705.845 186.203 695.124 193.351 695.124 206.218C695.124 221.943 714.423 225.517 742.657 235.882C773.394 246.604 790.906 259.47 790.906 287.347C790.906 325.589 760.885 347.39 717.282 347.39C696.196 347.39 670.463 342.029 651.164 329.877L663.315 297.354C679.398 305.932 698.34 310.578 715.138 310.578C738.011 310.578 749.091 302 749.091 289.491C749.091 275.195 732.65 270.907 705.846 261.972C675.467 251.607 654.023 238.383 654.023 207.29C654.023 172.265 681.9 152.25 722.286 152.25C750.52 152.608 773.394 161.543 785.903 171.193Z" fill="#FF004E"/>
<path d="M916.713 189.777V344.173H877.4V189.777H820.216V155.824H973.897V189.777H916.713Z" fill="#FF004E"/>
<path d="M1056.81 189.777V231.95H1132.22V265.903H1056.81V310.22H1144.37V344.173H1017.5V155.824H1144.37V189.777H1056.81Z" fill="#FF004E"/>
<path d="M1232.29 307.719L1219.78 344.173H1178.33L1249.09 155.824H1288.76L1361.31 344.173H1318.43L1305.56 307.719H1232.29ZM1268.75 200.857L1243.02 276.268H1295.2L1268.75 200.857Z" fill="#FF004E"/>
<path d="M1563.96 228.734L1512.49 338.812H1489.98L1439.58 229.806V344.173H1401.7V155.824H1439.23L1502.49 291.993L1563.6 155.824H1601.84V344.173H1563.96V228.734Z" fill="#FF004E"/>
<path d="M1677.97 179.774C1677.97 195.857 1665.82 205.864 1651.88 205.864C1637.94 205.864 1625.79 195.857 1625.79 179.774C1625.79 163.691 1637.94 153.684 1651.88 153.684C1665.82 153.326 1677.97 163.334 1677.97 179.774ZM1630.08 179.774C1630.08 193.355 1639.73 201.933 1651.88 201.933C1663.68 201.933 1673.68 193.355 1673.68 179.774C1673.68 166.193 1664.03 157.973 1651.88 157.973C1640.09 157.615 1630.08 166.193 1630.08 179.774ZM1652.24 166.193C1659.03 166.193 1661.17 169.767 1661.17 173.698C1661.17 177.272 1659.03 179.774 1656.53 180.846L1662.6 192.283H1657.6L1652.6 182.276H1647.24V192.283H1642.95V166.55H1652.24V166.193ZM1647.24 178.344H1651.88C1654.74 178.344 1656.53 176.557 1656.53 174.055C1656.53 171.554 1655.1 170.124 1651.88 170.124H1647.24V178.344Z" fill="#FF004E"/>
<defs>
<filter id="filter0_dd_118_12219" x="0" y="0" width="538.928" height="540" filterUnits="userSpaceOnUse" color-interpolation-filters="sRGB">
<feFlood flood-opacity="0" result="BackgroundImageFix"/>
<feColorMatrix in="SourceAlpha" type="matrix" values="0 0 0 0 0 0 0 0 0 0 0 0 0 0 0 0 0 0 127 0" result="hardAlpha"/>
<feMorphology radius="4" operator="erode" in="SourceAlpha" result="effect1_dropShadow_118_12219"/>
<feOffset dy="8"/>
<feGaussianBlur stdDeviation="4"/>
<feComposite in2="hardAlpha" operator="out"/>
<feColorMatrix type="matrix" values="0 0 0 0 0 0 0 0 0 0 0 0 0 0 0 0 0 0 0.04 0"/>
<feBlend mode="normal" in2="BackgroundImageFix" result="effect1_dropShadow_118_12219"/>
<feColorMatrix in="SourceAlpha" type="matrix" values="0 0 0 0 0 0 0 0 0 0 0 0 0 0 0 0 0 0 127 0" result="hardAlpha"/>
<feMorphology radius="4" operator="erode" in="SourceAlpha" result="effect2_dropShadow_118_12219"/>
<feOffset dy="20"/>
<feGaussianBlur stdDeviation="12"/>
<feComposite in2="hardAlpha" operator="out"/>
<feColorMatrix type="matrix" values="0 0 0 0 0 0 0 0 0 0 0 0 0 0 0 0 0 0 0.1 0"/>
<feBlend mode="normal" in2="effect1_dropShadow_118_12219" result="effect2_dropShadow_118_12219"/>
<feBlend mode="normal" in="SourceGraphic" in2="effect2_dropShadow_118_12219" result="shape"/>
</filter>
</defs>
</svg>
